<?xml version="1.0" encoding="utf-8"?>
<!-- Generator: Adobe Illustrator 24.3.0, SVG Export Plug-In . SVG Version: 6.00 Build 0)  -->
<svg version="1.1" id="Layer_1" xmlns="http://www.w3.org/2000/svg" xmlns:xlink="http://www.w3.org/1999/xlink" x="0px" y="0px"
	 viewBox="0 0 512 512" style="enable-background:new 0 0 512 512;" xml:space="preserve">
<style type="text/css">
	.st0{fill:#1F0F10;}
	.st1{fill:#381413;}
	.st2{fill:url(#XMLID_17_);}
	.st3{fill:url(#XMLID_18_);}
	.st4{fill:url(#XMLID_19_);}
	.st5{fill:#561210;}
	.st6{fill:url(#XMLID_20_);}
	.st7{fill:url(#XMLID_21_);}
	.st8{fill:url(#XMLID_22_);}
	.st9{fill:url(#XMLID_23_);}
	.st10{fill:none;}
	.st11{fill:#A6A8AB;}
	.st12{fill:#231F20;}
</style>
<g id="XMLID_1_">
	<g id="XMLID_2_">
		<polygon id="XMLID_44_" class="st0" points="8.16,279.39 8.44,278.97 8.86,278.69 10.52,295.3 9.41,295.3 		"/>
		<polygon id="XMLID_43_" class="st1" points="81.92,250.33 81.64,249.77 81.09,250.05 86.9,295.3 89.25,295.3 		"/>
		
			<linearGradient id="XMLID_17_" gradientUnits="userSpaceOnUse" x1="76.6236" y1="194.1761" x2="86.9695" y2="215.1546" gradientTransform="matrix(1 0 0 -1 0 512)">
			<stop  offset="0" style="stop-color:#9A1D21"/>
			<stop  offset="0.1837" style="stop-color:#AF2424"/>
			<stop  offset="0.4083" style="stop-color:#C32B27"/>
			<stop  offset="0.5614" style="stop-color:#CA2D28"/>
		</linearGradient>
		<polygon id="XMLID_42_" class="st2" points="69.88,295.3 73.34,314.4 90.64,312.46 105.58,295.3 		"/>
		
			<linearGradient id="XMLID_18_" gradientUnits="userSpaceOnUse" x1="96.8649" y1="216.7005" x2="96.8649" y2="199.5773" gradientTransform="matrix(1 0 0 -1 0 512)">
			<stop  offset="0" style="stop-color:#A41E22"/>
			<stop  offset="1" style="stop-color:#A41E23"/>
		</linearGradient>
		<polygon id="XMLID_41_" class="st3" points="105.58,295.3 88.15,295.3 90.64,312.46 		"/>
		
			<linearGradient id="XMLID_19_" gradientUnits="userSpaceOnUse" x1="15.0141" y1="217.0174" x2="15.0141" y2="197.6202" gradientTransform="matrix(1 0 0 -1 0 512)">
			<stop  offset="0.0739" style="stop-color:#B32626"/>
			<stop  offset="0.3635" style="stop-color:#AF2525"/>
			<stop  offset="0.6751" style="stop-color:#A22022"/>
			<stop  offset="0.996" style="stop-color:#8C191C"/>
			<stop  offset="1" style="stop-color:#8C191C"/>
		</linearGradient>
		<polygon id="XMLID_40_" class="st4" points="0,295.02 11.49,312.18 25.46,314.4 30.03,295.3 10.1,295.3 		"/>
		<polygon id="XMLID_39_" class="st5" points="10.1,295.3 0,295.02 11.49,312.32 		"/>
		<polygon id="XMLID_38_" class="st0" points="10.1,295.3 8.44,278.97 0,295.02 		"/>
		
			<linearGradient id="XMLID_20_" gradientUnits="userSpaceOnUse" x1="45.0422" y1="252.0898" x2="45.0422" y2="305.9471" gradientTransform="matrix(1 0 0 -1 0 512)">
			<stop  offset="0" style="stop-color:#7E1419"/>
			<stop  offset="0.2057" style="stop-color:#971C1F"/>
			<stop  offset="0.4392" style="stop-color:#AD2323"/>
			<stop  offset="0.666" style="stop-color:#BA2726"/>
			<stop  offset="0.8768" style="stop-color:#BE2827"/>
			<stop  offset="1" style="stop-color:#AB1F24"/>
		</linearGradient>
		<polygon id="XMLID_37_" class="st6" points="81.64,249.77 52.72,195.39 8.44,278.97 		"/>
		
			<linearGradient id="XMLID_21_" gradientUnits="userSpaceOnUse" x1="8.4411" y1="239.4638" x2="88.147" y2="239.4638" gradientTransform="matrix(1 0 0 -1 0 512)">
			<stop  offset="0" style="stop-color:#4B1614"/>
			<stop  offset="0.1479" style="stop-color:#491514"/>
			<stop  offset="1" style="stop-color:#421312"/>
		</linearGradient>
		<polygon id="XMLID_36_" class="st7" points="8.44,278.97 81.64,249.77 88.15,295.3 10.1,295.3 		"/>
		<polygon id="XMLID_35_" class="st1" points="81.64,249.77 88.15,295.3 105.58,295.3 		"/>
		
			<linearGradient id="XMLID_22_" gradientUnits="userSpaceOnUse" x1="49.6778" y1="316.6097" x2="49.6778" y2="243.8227" gradientTransform="matrix(1 0 0 -1 0 512)">
			<stop  offset="0" style="stop-color:#DE462F"/>
			<stop  offset="0.4139" style="stop-color:#DA422E"/>
			<stop  offset="0.8586" style="stop-color:#CD352A"/>
			<stop  offset="1" style="stop-color:#C72F28"/>
		</linearGradient>
		<polygon id="XMLID_34_" class="st8" points="35.7,268.18 63.65,257.11 52.72,195.39 		"/>
		
			<linearGradient id="XMLID_23_" gradientUnits="userSpaceOnUse" x1="49.9546" y1="216.7005" x2="49.9546" y2="254.893" gradientTransform="matrix(1 0 0 -1 0 512)">
			<stop  offset="0" style="stop-color:#771315"/>
			<stop  offset="0.5212" style="stop-color:#85171A"/>
			<stop  offset="1" style="stop-color:#8C191C"/>
		</linearGradient>
		<polygon id="XMLID_33_" class="st9" points="63.65,257.11 69.88,295.3 30.03,295.3 35.7,268.18 		"/>
		<polygon id="XMLID_32_" class="st10" points="105.72,295.16 52.72,195.39 0,295.02 11.49,312.18 25.46,314.4 30.03,295.3 
			30.03,295.3 69.88,295.3 73.34,314.4 90.64,312.46 105.72,295.16 		"/>
	</g>
	<rect id="XMLID_31_" x="137.82" y="198.02" class="st11" width="2.49" height="118.04"/>
	<g id="XMLID_3_">
		<path id="XMLID_4_" class="st12" d="M197.05,197.19h5.12l18.4,46.36h-4.7l-4.98-12.45H187.5l-4.98,12.45h-4.43L197.05,197.19z
			 M199.4,201.48l-10.1,25.6h20.06L199.4,201.48z"/>
		<path id="XMLID_5_" class="st12" d="M260.43,227.22c0,3.46-0.55,6.23-1.66,8.44c-1.11,2.21-2.49,4.01-4.15,5.26
			c-1.66,1.25-3.46,2.08-5.54,2.63c-1.94,0.55-3.74,0.69-5.54,0.69c-1.66,0-3.46-0.28-5.54-0.69c-1.94-0.55-3.74-1.38-5.54-2.63
			c-1.66-1.25-3.04-3.04-4.15-5.26c-1.11-2.21-1.66-4.98-1.66-8.44v-30.17h4.57v30.17c0,1.94,0.28,3.6,0.83,5.26
			c0.55,1.66,1.25,2.91,2.35,4.15c1.11,1.11,2.35,2.08,3.87,2.63c1.52,0.69,3.32,0.97,5.26,0.97c1.94,0,3.74-0.28,5.26-0.97
			c1.52-0.69,2.77-1.52,3.87-2.63c1.11-1.11,1.8-2.49,2.35-4.15c0.55-1.66,0.83-3.32,0.83-5.26v-30.17h4.57L260.43,227.22
			L260.43,227.22z"/>
		<path id="XMLID_6_" class="st12" d="M280.08,201.06h-13.7v-4.01h31.97v4.01h-13.7v42.34h-4.57L280.08,201.06L280.08,201.06z"/>
		<path id="XMLID_7_" class="st12" d="M303.74,211.3c0.83-2.91,2.08-5.4,3.74-7.61s3.74-4.01,6.37-5.26
			c2.63-1.38,5.54-1.94,9.13-1.94c3.46,0,6.5,0.69,9.13,1.94c2.63,1.38,4.7,3.04,6.37,5.26s2.91,4.7,3.74,7.61
			c0.83,2.91,1.25,5.95,1.11,8.99c0,3.6-0.55,6.78-1.38,9.69c-0.83,2.91-2.21,5.4-3.87,7.61c-1.66,2.08-3.87,3.74-6.37,4.84
			c-2.49,1.11-5.54,1.8-8.86,1.8s-6.23-0.55-8.86-1.8c-2.49-1.11-4.7-2.77-6.37-4.84c-1.66-2.08-3.04-4.57-3.87-7.61
			c-0.83-2.91-1.38-6.23-1.38-9.69C302.5,217.12,302.91,214.07,303.74,211.3z M315.78,202.03c-1.94,1.11-3.6,2.63-4.84,4.57
			c-1.25,1.94-2.21,4.01-2.91,6.5c-0.55,2.35-0.97,4.84-0.97,7.2c0,2.49,0.28,4.84,0.97,7.33c0.55,2.35,1.52,4.57,2.91,6.37
			c1.25,1.94,2.91,3.46,4.84,4.57c1.94,1.11,4.29,1.66,7.06,1.66c2.77,0,4.98-0.55,7.06-1.66c1.94-1.11,3.6-2.63,4.98-4.57
			c1.25-1.94,2.21-4.01,2.91-6.37c0.55-2.35,0.97-4.84,0.97-7.33s-0.28-4.84-0.97-7.2c-0.55-2.35-1.52-4.57-2.91-6.5
			c-1.25-1.94-2.91-3.46-4.98-4.57c-1.94-1.11-4.29-1.66-7.06-1.66C320.21,200.37,317.86,200.93,315.78,202.03z"/>
		<path id="XMLID_8_" class="st12" d="M352.17,197.19h11.49c4.15,0,7.75,0.55,10.66,1.66c2.91,1.11,5.26,2.77,7.2,4.84
			c1.8,2.08,3.18,4.57,4.01,7.33c0.83,2.77,1.25,5.95,1.25,9.27c0,4.15-0.69,7.75-1.94,10.66c-1.38,2.91-3.18,5.4-5.54,7.2
			s-5.12,3.18-8.44,4.01c-3.18,0.83-6.78,1.25-10.66,1.25h-8.16v-46.22H352.17z M356.74,239.39h3.74c3.32,0,6.23-0.42,8.99-1.11
			c2.63-0.69,4.98-1.8,6.78-3.32c1.94-1.52,3.32-3.6,4.43-6.09c1.11-2.49,1.52-5.54,1.52-8.99c0-3.6-0.55-6.5-1.52-8.99
			c-0.97-2.35-2.35-4.29-4.01-5.81c-1.66-1.52-3.74-2.49-5.95-3.18c-2.35-0.69-4.7-0.97-7.33-0.97h-6.64L356.74,239.39
			L356.74,239.39z"/>
		<path id="XMLID_9_" class="st12" d="M396.87,197.19h22.69v4.01h-18.13v16.47h17.16v4.01h-17.16v17.71h18.96v4.01h-23.52V197.19z"
			/>
		<path id="XMLID_10_" class="st12" d="M428.7,237.6c1.38,0.83,2.91,1.52,4.57,2.08c1.66,0.42,3.6,0.69,5.67,0.69
			c1.38,0,2.77-0.14,4.01-0.55c1.25-0.42,2.35-0.97,3.32-1.66c0.97-0.83,1.66-1.8,2.21-2.91c0.55-1.25,0.83-2.63,0.83-4.29
			c0-1.52-0.55-2.77-1.52-4.01c-1.11-1.11-2.35-2.21-4.01-3.18c-1.66-0.97-3.32-1.94-5.12-2.91c-1.8-0.97-3.46-1.94-5.12-3.18
			c-1.66-1.11-2.91-2.49-4.01-3.87c-1.11-1.52-1.52-3.18-1.52-5.26c0-1.8,0.42-3.46,1.11-4.98c0.69-1.52,1.8-2.77,3.18-3.87
			c1.38-1.11,2.91-1.94,4.7-2.49c1.8-0.55,3.74-0.83,5.67-0.83c1.11,0,2.49,0.14,4.15,0.28c1.66,0.14,3.32,0.55,4.84,1.25
			l-0.69,4.15c-0.97-0.55-2.35-0.97-3.87-1.25c-1.52-0.28-3.04-0.42-4.57-0.42c-1.25,0-2.35,0.14-3.6,0.42s-2.21,0.69-3.18,1.38
			c-0.97,0.55-1.66,1.38-2.35,2.49c-0.55,0.97-0.83,2.21-0.83,3.74c0,1.52,0.55,2.91,1.52,4.01c1.11,1.11,2.35,2.08,4.01,3.04
			c1.66,0.97,3.32,1.94,5.12,2.77c1.8,0.97,3.46,1.94,5.12,3.18c1.66,1.25,2.91,2.63,4.01,4.15c1.11,1.52,1.52,3.46,1.52,5.67
			c0,2.35-0.42,4.29-1.38,5.95s-2.08,3.04-3.6,4.01c-1.52,1.11-3.04,1.8-4.84,2.35c-1.8,0.55-3.6,0.69-5.4,0.69
			c-2.21,0-4.29-0.14-5.95-0.55c-1.8-0.42-3.18-0.83-4.43-1.38L428.7,237.6z"/>
		<path id="XMLID_11_" class="st12" d="M463.84,197.19h4.57v20.76l20.9-20.76h5.95l-22.42,21.86l24.35,24.49h-6.37l-22.42-23.11
			v23.11h-4.57L463.84,197.19L463.84,197.19z"/>
	</g>
	<g id="XMLID_12_">
		<path id="XMLID_13_" class="st12" d="M198.02,268.87h7.06l19.79,46.91h-7.33l-4.7-11.76h-22.83l-4.7,11.76h-7.06L198.02,268.87z
			 M201.2,275.23l-9.27,23.25h18.54L201.2,275.23z"/>
		<path id="XMLID_14_" class="st12" d="M267.76,296.41c0,6.64-1.52,11.62-4.7,15.08c-3.18,3.46-7.61,5.12-13.42,5.12
			c-5.81,0-10.24-1.66-13.42-5.12c-3.18-3.46-4.7-8.44-4.7-15.08v-27.4h6.64v26.57c0,2.21,0.14,4.29,0.55,6.09
			c0.42,1.8,0.97,3.46,1.94,4.84c0.83,1.38,2.08,2.35,3.6,3.18c1.52,0.69,3.32,1.11,5.4,1.11c2.08,0,4.01-0.42,5.4-1.11
			c1.52-0.69,2.63-1.8,3.6-3.18c0.83-1.38,1.52-2.91,1.94-4.84c0.42-1.8,0.55-3.87,0.55-6.09v-26.57h6.64V296.41z"/>
		<path id="XMLID_15_" class="st12" d="M289.07,274.82h-14.53v-5.95h35.7v5.95h-14.53v40.96h-6.64V274.82z"/>
		<path id="XMLID_45_" class="st12" d="M316.06,282.71c0.97-2.91,2.49-5.54,4.43-7.61c1.94-2.21,4.29-3.87,7.06-5.12
			c2.77-1.25,5.95-1.8,9.55-1.8c3.46,0,6.64,0.55,9.41,1.8c2.77,1.25,5.12,2.91,7.06,5.12c1.94,2.21,3.46,4.7,4.43,7.61
			c0.97,2.91,1.52,6.23,1.52,9.69c0,3.6-0.55,6.78-1.52,9.82c-0.97,2.91-2.49,5.54-4.43,7.61c-1.94,2.21-4.29,3.87-7.06,4.98
			c-2.77,1.25-5.95,1.8-9.55,1.8s-6.78-0.55-9.55-1.8c-2.77-1.25-5.12-2.91-7.06-4.98c-1.94-2.21-3.32-4.7-4.43-7.61
			c-0.97-2.91-1.52-6.23-1.52-9.82C314.53,288.93,315.09,285.61,316.06,282.71z M322.56,299.17c0.55,2.21,1.52,4.15,2.77,5.81
			c1.25,1.66,2.91,3.04,4.84,4.15c1.94,0.97,4.29,1.52,6.92,1.52s4.98-0.55,6.92-1.52s3.6-2.35,4.84-4.15
			c1.25-1.66,2.21-3.74,2.77-5.81c0.55-2.21,0.97-4.43,0.97-6.78c0-2.35-0.28-4.7-0.97-6.92c-0.69-2.21-1.66-4.15-2.91-5.81
			c-1.25-1.66-2.91-3.04-4.84-4.01c-1.94-0.97-4.15-1.52-6.78-1.52s-4.84,0.55-6.78,1.52s-3.46,2.35-4.84,4.01
			c-1.25,1.66-2.21,3.6-2.91,5.81c-0.69,2.21-0.97,4.57-0.97,6.92C321.59,294.75,322.01,296.96,322.56,299.17z"/>
		<path id="XMLID_48_" class="st12" d="M401.3,276.62c-2.91-1.8-6.09-2.63-9.69-2.63c-2.63,0-5.12,0.42-7.33,1.38
			c-2.21,0.97-4.15,2.21-5.67,3.87c-1.52,1.66-2.77,3.6-3.6,5.81c-0.83,2.21-1.25,4.7-1.25,7.33c0,2.77,0.42,5.26,1.38,7.47
			c0.97,2.21,2.21,4.15,3.74,5.81c1.66,1.66,3.46,2.91,5.67,3.74c2.08,0.83,4.43,1.25,6.78,1.25c0.83,0,1.8,0,2.63-0.14
			c0.97-0.14,1.8-0.28,2.77-0.42c0.97-0.14,1.8-0.42,2.63-0.69c0.83-0.28,1.52-0.55,2.08-0.97l0.42,6.5
			c-1.8,0.83-3.6,1.25-5.67,1.38c-1.94,0.14-3.6,0.28-4.98,0.28c-3.74,0-7.06-0.55-10.1-1.66c-3.04-1.11-5.67-2.77-7.75-4.84
			s-3.74-4.7-4.98-7.75s-1.8-6.37-1.8-10.1c0-3.6,0.55-6.92,1.8-9.82c1.25-2.91,2.91-5.54,5.12-7.61c2.21-2.08,4.84-3.74,7.89-4.84
			c3.04-1.11,6.37-1.66,9.82-1.66c1.8,0,3.6,0.14,5.4,0.42c1.8,0.28,3.46,0.83,5.12,1.52L401.3,276.62z"/>
		<path id="XMLID_50_" class="st12" d="M424.68,268.87h7.06l19.79,46.91h-7.33l-4.7-11.76h-22.97l-4.7,11.76h-7.06L424.68,268.87z
			 M427.87,275.23l-9.27,23.25h18.68L427.87,275.23z"/>
		<path id="XMLID_53_" class="st12" d="M457.76,268.87h13.84c3.46,0,6.78,0.55,9.69,1.52c3.04,1.11,5.67,2.63,7.89,4.57
			c2.21,1.94,4.01,4.43,5.26,7.2c1.25,2.91,1.94,6.09,1.94,9.69c0,3.87-0.55,7.33-1.8,10.38c-1.11,3.04-2.77,5.4-4.98,7.47
			c-2.08,1.94-4.7,3.46-7.89,4.57c-3.04,0.97-6.5,1.52-10.38,1.52h-13.84v-46.91H457.76z M464.4,309.83h7.06
			c5.81,0,10.1-1.38,13.28-4.29c3.04-2.91,4.57-7.33,4.57-13.42c0-2.77-0.42-5.12-1.25-7.33c-0.83-2.21-2.08-4.01-3.6-5.54
			c-1.52-1.52-3.32-2.63-5.4-3.46c-2.08-0.83-4.29-1.11-6.78-1.11h-7.89V309.83z"/>
	</g>
	<g id="XMLID_56_">
		<g id="XMLID_57_">
			<path id="XMLID_59_" class="st12" d="M507.71,204.8l-1.25-2.91h-1.8v2.91h-0.83v-6.64h2.49c0.28,0,0.55,0,0.83,0.14
				c0.28,0,0.55,0.14,0.69,0.28c0.28,0.14,0.42,0.42,0.55,0.69c0.14,0.28,0.14,0.55,0.14,0.83c0,0.42-0.14,0.69-0.28,1.11
				c-0.28,0.28-0.55,0.55-0.97,0.69l1.25,3.04h-0.83V204.8z M506.19,201.2c0.28,0,0.42,0,0.55,0c0.14,0,0.42-0.14,0.55-0.28
				c0.14-0.14,0.14-0.28,0.28-0.42c0-0.14,0.14-0.28,0.14-0.42c0-0.14,0-0.42-0.14-0.55c-0.14-0.14-0.14-0.28-0.42-0.42
				c-0.14-0.14-0.28-0.14-0.42-0.14c-0.14,0-0.28,0-0.42,0h-1.66v2.35h1.52V201.2z"/>
		</g>
		<path id="XMLID_65_" class="st12" d="M506.05,207.71c-3.32,0-5.95-2.63-5.95-5.95c0-3.32,2.63-5.95,5.95-5.95s5.95,2.63,5.95,5.95
			C512,205.08,509.37,207.71,506.05,207.71z M506.05,196.77c-2.77,0-4.98,2.21-4.98,4.98s2.21,4.98,4.98,4.98s4.98-2.21,4.98-4.98
			C511.03,198.99,508.82,196.77,506.05,196.77z"/>
	</g>
	<g id="XMLID_68_">
		<g id="XMLID_69_">
			<path id="XMLID_70_" class="st12" d="M506.46,276.48l-1.25-2.91h-1.8v2.91h-0.83v-6.64h2.49c0.28,0,0.55,0,0.83,0.14
				c0.28,0,0.55,0.14,0.69,0.28c0.28,0.14,0.42,0.42,0.55,0.69c0.14,0.28,0.14,0.55,0.14,0.83c0,0.42-0.14,0.69-0.28,1.11
				c-0.28,0.28-0.55,0.55-0.97,0.69l1.25,3.04h-0.83V276.48z M504.94,272.88c0.28,0,0.42,0,0.55,0c0.14,0,0.42-0.14,0.55-0.28
				c0.14-0.14,0.14-0.28,0.28-0.42c0-0.14,0.14-0.28,0.14-0.42c0-0.14,0-0.42-0.14-0.55c-0.14-0.14-0.14-0.28-0.42-0.42
				c-0.14-0.14-0.28-0.14-0.42-0.14c-0.14,0-0.28,0-0.42,0h-1.66v2.35h1.52V272.88z"/>
		</g>
		<path id="XMLID_73_" class="st12" d="M504.8,279.39c-3.32,0-5.95-2.63-5.95-5.95s2.63-5.95,5.95-5.95c3.32,0,5.95,2.63,5.95,5.95
			C510.75,276.76,508.13,279.39,504.8,279.39z M504.8,268.45c-2.77,0-4.98,2.21-4.98,4.98c0,2.77,2.21,4.98,4.98,4.98
			c2.77,0,4.98-2.21,4.98-4.98C509.79,270.67,507.57,268.45,504.8,268.45z"/>
	</g>
</g>
</svg>
